<svg xmlns="http://www.w3.org/2000/svg" width="22" height="22" viewBox="0 0 22 22" fill="none"><path d="M17.4168 15.5833L19.8616 16.5L17.4168 17.4167L16.5002 19.8614L15.5835 17.4167L13.1387 16.5L15.5835 15.5833L16.5002 13.1386L17.4168 15.5833ZM11.0002 2.75C16.0418 2.75 20.1668 6.03167 20.1668 10.0833C20.1668 10.7858 20.0401 11.4642 19.8088 12.1073C19.3179 11.737 18.7637 11.4461 18.1643 11.256C18.274 10.8779 18.3335 10.4859 18.3335 10.0833C18.3335 7.04917 15.0518 4.58333 11.0002 4.58333C6.9485 4.58333 3.66683 7.04917 3.66683 10.0833C3.66683 13.1175 6.9485 15.5833 11.0002 15.5833C11.0262 15.5833 11.0521 15.5818 11.0781 15.5815C11.0278 15.8803 11.0002 16.187 11.0002 16.5C11.0002 16.8118 11.0273 17.1173 11.0772 17.4148C11.0515 17.415 11.0258 17.4167 11.0002 17.4167C9.90933 17.4167 8.80908 17.2608 7.76408 16.9583C6.0866 18.3332 4.00593 19.1492 1.8335 19.25C3.96933 17.1142 4.35433 15.675 4.35433 15.125C2.80516 13.9058 1.87933 12.0542 1.8335 10.0833C1.8335 6.03167 5.9585 2.75 11.0002 2.75Z" fill="currentColor"></path></svg>